<svg id="aboutmepgboy" xmlns="http://www.w3.org/2000/svg" width="296.439" height="778.656" viewBox="0 0 296.439 778.656">
  <g id="Group_75" data-name="Group 75" transform="translate(0 10.661)" style="mix-blend-mode: hard-light;isolation: isolate">
    <g id="undraw_mobile_messages_u848" transform="translate(0 0)" style="isolation: isolate">
      <path id="Path_43" data-name="Path 43" d="M893.386,697.9s10.98,33.5,18.3,42.148,13.42,22.695,9.76,24.856-10.98,28.1-1.22,29.179,31.719-28.1,32.939-37.825,6.1-44.309,6.1-44.309,8.54-30.26-4.88-32.421-34.159-3.242-34.159-3.242Z" transform="translate(-665.504 -26.121)" fill="#2f2e41"/>
      <path id="Path_44" data-name="Path 44" d="M864.829,721.989s-15.86,36.744-19.52,38.905-17.079,21.614,9.76,21.614,41.479-6.484,41.479-6.484l8.54-8.646s0-22.695-2.44-25.937,0-19.453,0-19.453Z" transform="translate(-688.185 -14.543)" fill="#2f2e41"/>
      <path id="Path_45" data-name="Path 45" d="M783.2,456.99s-19.52,116.716-2.44,154.541,34.159,48.632,34.159,48.632l129.317,106.99s40.259-18.372,36.6-30.26c0,0-8.54-4.323-9.76-7.565S954,725.006,954,725.006s-7.32-7.565-7.32-11.888-63.439-81.053-84.178-86.457c0,0-10.98-11.888-9.76-14.049s-3.66-9.726-3.66-9.726l12.2-42.148,76.858-10.807s31.719-99.425,4.88-106.99S783.2,456.99,783.2,456.99Z" transform="translate(-715.134 -85.645)" fill="#191919"/>
      <path id="Path_46" data-name="Path 46" d="M909.705,514.184l2.44,17.291s0,45.39-2.44,49.712-3.66,10.807,0,15.13,9.76,15.13,7.32,19.453,4.88,126.442-4.88,135.088-6.1,19.453-4.88,20.533-1.22,5.4-1.22,5.4-50.019,7.565-46.359,0,3.66-11.888,6.1-14.049,0-5.4,0-5.4,3.66-34.583,0-36.744S851.146,614.69,851.146,613.609s-3.66-3.242-3.66-7.565,0-18.372-6.1-20.533-4.88-55.116-4.88-55.116Z" transform="translate(-689.142 -67.189)" fill="#191919"/>
      <path id="Path_47" data-name="Path 47" d="M844.52,206.358s2.463,34.417,17.1,40.9a98.259,98.259,0,0,0,26.816,7.731l-12.2,37.824-4.88,32.421H815.241l-30.5-21.614,9.76-35.663,17.651-7.752S805.481,237.7,800.6,230.133,844.52,206.358,844.52,206.358Z" transform="translate(-710.576 -145.175)" fill="#ffb9b9"/>
      <path id="Path_48" data-name="Path 48" d="M831.925,276.73l8.54,14.049s6.1-19.453,14.64-22.695,29.279-8.646,29.279-12.969-1.22-15.13,3.66-15.13,52.459,12.969,59.779,17.291,8.54,8.646,8.54,8.646L942.943,390.2s19.519,58.358,13.42,81.053-10.98,25.937-25.619,29.179-6.1-7.565-48.8,3.242-69.538,7.565-79.3,7.565-15.86,4.323-18.3,5.4-1.22-5.4,7.32-15.13,4.88-25.937,4.88-25.937-9.76-28.1-3.66-38.905,14.64-24.856,7.32-29.179-17.08-36.744-17.08-36.744l-26.839-84.3,50.244-29.179,15.74-6.089s-6.291,13.654,2.249,16.9S831.925,276.73,831.925,276.73Z" transform="translate(-722.38 -136.655)" fill="#a41c3f"/>
      <path id="Path_49" data-name="Path 49" d="M767.185,276.2h-7.32s-12.2,18.372-12.2,31.34,6.1,86.457,6.1,86.457l35.379,32.421,8.54-24.856,2.44-55.116Z" transform="translate(-725.957 -127.48)" fill="#191919"/>
      <path id="Path_50" data-name="Path 50" d="M786.712,368.222s-40.259-9.726-39.039,5.4,7.32,33.5,26.839,37.825S800.132,392,800.132,392,802.571,370.384,786.712,368.222Z" transform="translate(-725.965 -104.947)" fill="#191919"/>
      <path id="Path_51" data-name="Path 51" d="M887.185,407.264s-2.44,49.713-17.08,55.116l35.379,7.565s17.079-51.874,14.64-54.035S887.185,407.264,887.185,407.264Z" transform="translate(-675.162 -94.276)" fill="#ffb9b9"/>
      <path id="Path_52" data-name="Path 52" d="M3.029,0,25.474.961a3.391,3.391,0,0,1,3.3,3.046l2.437,52.607A3.343,3.343,0,0,1,27.51,60l-21.045-.9a4.143,4.143,0,0,1-4.025-3.72L0,2.78A2.737,2.737,0,0,1,3.029,0Z" transform="translate(0 213.004) rotate(-23.598)" fill="#2f2e41"/>
      <path id="Path_53" data-name="Path 53" d="M3.029,0,25.474.961a3.391,3.391,0,0,1,3.3,3.046l2.437,52.607A3.343,3.343,0,0,1,27.51,60l-21.045-.9a4.143,4.143,0,0,1-4.025-3.72L0,2.78A2.737,2.737,0,0,1,3.029,0Z" transform="translate(0 213.004) rotate(-23.598)" opacity="0.1"/>
      <path id="Path_54" data-name="Path 54" d="M3.029,0,22.6.837a3.391,3.391,0,0,1,3.3,3.046L28.2,53.8a3.343,3.343,0,0,1-3.7,3.391L6.341,56.42A4.143,4.143,0,0,1,2.315,52.7L0,2.779A2.737,2.737,0,0,1,3.029,0Z" transform="translate(1.189 215.416) rotate(-23.598)" fill="#2f2e41"/>
      <path id="Path_66" data-name="Path 66" d="M5.51.006a6.209,6.209,0,0,1,6,5.616,5.01,5.01,0,0,1-5.5,5.125,6.209,6.209,0,0,1-6-5.616A5.01,5.01,0,0,1,5.51.006Z" transform="translate(10.957 225.883) rotate(-23.598)" fill="#f2f2f2"/>
      <path id="Path_55" data-name="Path 55" d="M898.481,274.4l7.93-10.267s29.279,39.986,26.84,67-4.88,28.1-4.88,32.421-6.1,4.323,0,9.726,14.64,12.969,9.76,17.291-8.54,4.323-7.32,9.726a63.576,63.576,0,0,1,1.22,11.888s-10.37,17.832-14.03,17.832-38.429,28.639-38.429,25.4,3.66-25.937,3.66-29.179,1.22-14.049,3.66-17.291,2.44-2.161,0-5.4-2.44,0-2.44-3.242,1.22-7.565-2.44-8.646-7.32,0-4.88-5.4,0-9.726-1.22-9.726-7.32-1.081-3.66-4.323-7.32-65.923-7.32-65.923S866.761,290.606,898.481,274.4Z" transform="translate(-677.308 -130.539)" opacity="0.1"/>
      <path id="Path_56" data-name="Path 56" d="M890.521,253.782l20.74,8.646s29.279,39.986,26.839,67-4.88,28.1-4.88,32.421-6.1,4.323,0,9.726,14.64,12.969,9.76,17.291-8.54,4.323-7.32,9.726a63.545,63.545,0,0,1,1.22,11.888s-10.98,51.874-14.64,51.874-37.819-5.4-37.819-8.646,3.66-25.937,3.66-29.179,1.22-14.049,3.66-17.291,2.44-2.161,0-5.4-2.44,0-2.44-3.242,1.22-7.565-2.44-8.646-7.32,0-4.88-5.4,0-9.726-1.22-9.726-7.32-1.081-3.66-4.323-7.32-65.923-7.32-65.923S858.8,269.993,890.521,253.782Z" transform="translate(-676.058 -133.16)" fill="#191919"/>
      <path id="Path_57" data-name="Path 57" d="M758.454,382.313a5.362,5.362,0,0,1-5.882-2.351c-5.606-9.93-20.8-39.054-6.635-39.95,13.063-.827,24.7,21.738,29.449,32.4a4.619,4.619,0,0,1-.219,4.219,5.723,5.723,0,0,1-3.709,2.654Z" transform="translate(-729.11 -111.32)" fill="#ffb9b9"/>
      <path id="Path_65" data-name="Path 65" d="M45.974,0C70.9,0,65.885-22.084,65.885,0c0,17.181,20.173,55.022,5.534,68.506-3.905,3.6-19.911,17.129-25.445,17.129-9.4,0-23.959,9.25-35.956-4.216S-2.013,45.526-2.013,31.768C-2.013,9.684,21.045,0,45.974,0Z" transform="translate(58.056 24.004)" fill="#ffb9b9"/>
      <path id="Path_58" data-name="Path 58" d="M804.756,188a98.641,98.641,0,0,1-17.353,3.629c-4.446.614-16.249,1.012-19.374-1.856-3.066-2.815,4.031-7.592,6.123-11.037s-18.178-8.758-15.665-11.974c3.953-5.058,30.286-13.109,36.606-15.657,2.62-.888,18.435-12.025,21.24-12.034,16.4-.926,22.151,1.634,37.341,7.194,5.707,1.926,12.176,13.669,16.1,17.814,2.571,3.052,6.22,11.031,7.537,14.656,8.255,21.692-1.976,43.737-18.536,61.311-5.536-4.418-3.128-14.627-10.133-16.879-2.3-.739-4.9-.225-7.25-.809-7.4-1.838-3.669-14.518-9.827-18.587-1.345-.641-5.894,1.045-6.865,0a5.73,5.73,0,0,1-.682-3.22c-.045-3.794,1.967-13.431-2.119-16.032C817.743,181.87,808.752,186.719,804.756,188Z" transform="translate(-715.898 -149.542)" fill="#191919"/>
    </g>
  </g>
</svg>
