<svg id="homepageboysitting" xmlns="http://www.w3.org/2000/svg" width="712.365" height="553.304" viewBox="0 0 712.365 553.304">
  <g id="undraw_web_developer_p3e5" style="mix-blend-mode: luminosity;isolation: isolate">
    <ellipse id="Ellipse_2" data-name="Ellipse 2" cx="52.972" cy="53.365" rx="52.972" ry="53.365" transform="translate(418.072 141.589)" fill="#a41c3f"/>
    <rect id="Rectangle_2" data-name="Rectangle 2" width="295.539" height="61.259" rx="5" transform="translate(55.1 75.586)" fill="#191919"/>
    <path id="Path_32" data-name="Path 32" d="M462.489,433.353h550.537V72.386H462.487Zm549.231-1.317H463.8V73.7h547.922Z" transform="translate(-462.487 -72.386)" fill="#fff"/>
    <rect id="Rectangle_3" data-name="Rectangle 3" width="549.231" height="1.317" transform="translate(0.654 19.982)" fill="#fff"/>
    <rect id="Rectangle_4" data-name="Rectangle 4" width="1.308" height="340.179" transform="translate(376.795 20.64)" fill="#fff"/>
    <rect id="Rectangle_5" data-name="Rectangle 5" width="96.116" height="13.174" rx="6.587" transform="translate(219.542 187.894)" fill="#9e2bd3"/>
    <rect id="Rectangle_6" data-name="Rectangle 6" width="96.116" height="13.174" rx="6.587" transform="translate(68.503 187.894)" fill="#f2f2f2"/>
    <rect id="Rectangle_7" data-name="Rectangle 7" width="96.116" height="13.174" rx="6.587" transform="translate(219.542 289.992)" fill="#f2f2f2"/>
    <rect id="Rectangle_8" data-name="Rectangle 8" width="247.154" height="13.174" rx="6.587" transform="translate(68.177 237.625)" fill="#a41c3f"/>
    <path id="Path_12" data-name="Path 12" d="M306.606,662.091H280.463L216.04,636.7s-45.75-18.812-42.015,16.931,10.27,83.713,10.27,83.713,20.541-9.406,31.745-6.584,3.735-57.377,3.735-57.377,91.5,44.208,99.9,38.565,10.27-45.149,10.27-45.149Z" transform="translate(303.056 -218.463)" fill="#2f2e41"/>
    <path id="Path_13" data-name="Path 13" d="M306.606,662.091H280.463L216.04,636.7s-45.75-18.812-42.015,16.931,10.27,83.713,10.27,83.713,20.541-9.406,31.745-6.584,3.735-57.377,3.735-57.377,91.5,44.208,99.9,38.565,10.27-45.149,10.27-45.149Z" transform="translate(303.056 -218.463)" opacity="0.1"/>
    <path id="Path_14" data-name="Path 14" d="M396.8,558.82l-31.638,45.794-73.76,62.08s-68.158,15.99-58.821,27.277,66.291-11.287,66.291-11.287,84.964-62.08,87.765-66.783,33.612-48.911,33.612-48.911Z" transform="translate(171.674 -197.669)" fill="#a0616a"/>
    <path id="Path_15" data-name="Path 15" d="M396.8,558.82l-31.638,45.794-73.76,62.08s-68.158,15.99-58.821,27.277,66.291-11.287,66.291-11.287,84.964-62.08,87.765-66.783,33.612-48.911,33.612-48.911Z" transform="translate(171.674 -197.669)" opacity="0.1"/>
    <path id="Path_16" data-name="Path 16" d="M215.4,507.092l-20.541,40.446s4.668,19.753,12.138,21.634,39.214-24.456,39.214-24.456Z" transform="translate(371.852 -182.92)" fill="#d0cde1"/>
    <path id="Path_17" data-name="Path 17" d="M215.4,507.092l-20.541,40.446s4.668,19.753,12.138,21.634,39.214-24.456,39.214-24.456Z" transform="translate(371.852 -182.92)" opacity="0.1"/>
    <path id="Path_18" data-name="Path 18" d="M557.585,644.42l-6.068,25.215a1.585,1.585,0,0,0,.03.851l27.524,86.65a1.561,1.561,0,0,0,3.042-.3l3.808-33.756a1.586,1.586,0,0,0-.067-.666L560.59,644.3a1.56,1.56,0,0,0-3.005.117Z" transform="translate(-220.919 -221.733)" fill="#2f2e41"/>
    <path id="Path_19" data-name="Path 19" d="M497.7,575.493l-5.6,21.634,24.276,79.01,5.6-24.456Z" transform="translate(-158.801 -150.676)" fill="#f2f2f2"/>
    <path id="Path_20" data-name="Path 20" d="M517.468,795.092c-.934,2.822-97.1-.941-98.035-1.881a20.474,20.474,0,0,1-2.054-3.762c-.878-1.881-1.681-3.762-1.681-3.762l3.735-30.457,95.234-3.4s2.381,25.81,2.867,37.624A28.449,28.449,0,0,1,517.468,795.092Z" transform="translate(-56.26 -252.7)" fill="#191919"/>
    <path id="Path_21" data-name="Path 21" d="M420.28,689.965,418.413,716.3h42.015V689.965Z" transform="translate(-44.97 -183.316)" fill="#9e2bd3" opacity="0.59"/>
    <path id="Path_22" data-name="Path 22" d="M364.717,701.786l-.25-.05,1.184,11.338h23.342V701.786Z" transform="translate(64.745 -186.672)" fill="#a41c3f"/>
    <path id="Path_23" data-name="Path 23" d="M515.788,810.1c-.934,2.822-97.1-.941-98.035-1.881a20.471,20.471,0,0,1-2.054-3.762H515.853A28.436,28.436,0,0,1,515.788,810.1Z" transform="translate(-54.58 -267.707)" fill="#191919" opacity="0.1"/>
    <path id="Path_41" data-name="Path 41" d="M42.015,0A42.172,42.172,0,0,0,0,42.327C0,57.639,14.225,80.414,24.729,91s27.518-6.341,35.523-6.341c23.2,0,23.778-18.95,23.778-42.327A42.172,42.172,0,0,0,42.015,0Z" transform="translate(531.233 226.35)" fill="#a0616a"/>
    <path id="Path_24" data-name="Path 24" d="M163.94,467.551s14.005,24.456,16.806,37.624,42.015-26.337,42.015-26.337L227.9,465.2s-36.88-17.4-34.079-31.51S163.94,467.551,163.94,467.551Z" transform="translate(412.109 -161.25)" fill="#a0616a"/>
    <path id="Path_25" data-name="Path 25" d="M384.764,584.722l-38.28,50.792-91.5,68.664s-66.291,14.109-51.352,24.456,57.888-9.406,57.888-9.406,92.434-49.852,112.041-70.545,56.02-55.5,56.02-55.5Z" transform="translate(183.816 -205.054)" fill="#a0616a"/>
    <path id="Path_26" data-name="Path 26" d="M209.121,692.909l-11.2,17.871L131.05,689.587a52.239,52.239,0,0,0-43.773,5.32c-11.671,7.407-19.14,19.165-2.334,36.566,33.612,34.8,56.02,15.99,56.02,15.99s112.974,53.615,131.648,27.278,19.607-39.505,19.607-39.505S220.325,690.086,209.121,692.909Z" transform="translate(410.811 -234.23)" fill="#191919"/>
    <path id="Path_27" data-name="Path 27" d="M263.2,778.71s-29.878,19.753,5.6,29.159,61.622-3.762,61.622-3.762,30.811,0,30.811-15.99-10.27-17.871-10.27-17.871l-31.745,4.7S280.94,764.6,263.2,778.71Z" transform="translate(216.681 -257.952)" fill="#d0cde1"/>
    <path id="Path_28" data-name="Path 28" d="M197.554,394.114c-2.86,1.284-5.7,2.8-8.8,3.177s-6.649-.721-8.121-3.505a11.074,11.074,0,0,1-.922-4.976c-.112-5.165.258-10.749,3.507-14.746,2.068-2.544,5.086-4.147,7.226-6.63a31.371,31.371,0,0,0,3.653-6.013c4.163-7.876,10.326-15.445,18.891-17.716a40.672,40.672,0,0,1,11.027-.849l21.57.307a37.291,37.291,0,0,1,10.377,1.125c6.943,2.115,12,8,16.628,13.621a85.168,85.168,0,0,1,9.536,13.259,46.8,46.8,0,0,1,5.474,22.795,21.48,21.48,0,0,1-.775,6.032,33.6,33.6,0,0,1-2.353,5.207c-4.045,8-6.447,18-1.891,25.723-7.913-3.257-15.743-7.526-20.963-14.346-2.335-3.051-4.167-6.622-7.279-8.861s-8.183-2.433-10.18.853a9.246,9.246,0,0,0-1.029,4.305c-.146,2.466-.142,5.028-1.18,7.266s-3.51,4.044-5.871,3.375c-4.065-1.154-3.676-7.439-6.807-10.294-2.378-2.168-6.046-1.754-9.1-2.738-3.559-1.147-6.23-4.253-7.752-7.692-1.157-2.614-1.14-9.453-3.329-10.868C206.339,390.15,200.1,392.971,197.554,394.114Z" transform="translate(341.228 -136.085)" fill="#191919"/>
    <path id="Path_29" data-name="Path 29" d="M121.373,472.412a11,11,0,0,0-5.768.015c-5.993,1.621-19.429,5.912-22.31,12.442C89.561,493.334,76.49,506.5,76.49,506.5s-17.74,17.871-14.005,30.1,17.74,26.337,17.74,26.337-3.735,58.317,14.939,73.367,26.143,4.7,26.143,18.812,57.888,58.317,69.092,31.04c0,0-5.6-50.792-3.735-68.664C188.5,599.879,185.809,489.985,121.373,472.412Z" transform="translate(521.968 -172.924)" fill="#d0cde1"/>
    <path id="Path_30" data-name="Path 30" d="M187.939,504.792s-56.954,42.327-46.684,60.2c0,0,34.546,16.931,42.015,15.99s36.413-33.862,43.883-36.683S238.357,490.682,187.939,504.792Z" transform="translate(425.457 -181.559)" fill="#d0cde1"/>
  </g>
</svg>
